<?xml version="1.0" encoding="UTF-8" standalone="no"?>
<!-- Created with Inkscape (http://www.inkscape.org/) -->

<svg
   width="210mm"
   height="297mm"
   viewBox="0 0 210 297"
   version="1.1"
   id="svg5"
   inkscape:version="1.1 (c68e22c387, 2021-05-23)"
   sodipodi:docname="awesome-screenshots.svg"
   inkscape:export-filename="/home/pim/Desktop/awesome-screenshots.png"
   inkscape:export-xdpi="96"
   inkscape:export-ydpi="96"
   xmlns:inkscape="http://www.inkscape.org/namespaces/inkscape"
   xmlns:sodipodi="http://sodipodi.sourceforge.net/DTD/sodipodi-0.dtd"
   xmlns="http://www.w3.org/2000/svg"
   xmlns:svg="http://www.w3.org/2000/svg">
  <sodipodi:namedview
     id="namedview7"
     pagecolor="#ffffff"
     bordercolor="#666666"
     borderopacity="1.0"
     inkscape:pageshadow="2"
     inkscape:pageopacity="0.0"
     inkscape:pagecheckerboard="0"
     inkscape:document-units="mm"
     showgrid="false"
     inkscape:zoom="1.3416246"
     inkscape:cx="276.53041"
     inkscape:cy="225.84559"
     inkscape:window-width="1902"
     inkscape:window-height="1153"
     inkscape:window-x="7"
     inkscape:window-y="37"
     inkscape:window-maximized="0"
     inkscape:current-layer="g37" />
  <defs
     id="defs2" />
  <g
     inkscape:label="Layer 1"
     inkscape:groupmode="layer"
     id="layer1">
    <g
       id="g37"
       transform="matrix(0.26458333,0,0,0.26458333,29.235588,12.003344)">
      <path
         d="M 18.345696,38.514876 V -3.4851232 h 43.999999 v -2 H 18.345696 V -25.485123 h 63.999999 v 63.999999 h -20 V 16.514877 H 38.345696 v 2 h 21.999999 v 19.999999 z"
         id="path10"
         style="fill:#5b4db7;fill-opacity:1"
         inkscape:connector-curvature="0" />
      <path
         style="fill:#42adc7;fill-opacity:1"
         id="path5121"
         d="m 94.345693,-25.485123 h 41.999997 v 43.999999 h 2 v -43.999999 h 20 V 38.514876 H 94.345693 c 0.0387,-19.975266 1.21505,-20 21.999997,-20 v -43.999999 l -2,3.13e-4 V 18.54875 L 94.345693,38.514852 Z"
         inkscape:connector-curvature="0" />
      <path
         d="m 234.34569,-25.485123 v 42 h -44 v 2 h 44 v 20 h -64 v -64 c 19.97527,0.03867 20,1.21505 20,21.9999998 h 44 l -3.1e-4,-2 H 190.31182 L 170.34571,-25.485123 Z"
         id="path5123"
         style="fill:#81d152;fill-opacity:1"
         inkscape:connector-curvature="0" />
      <path
         style="fill:#f5f263;fill-opacity:1"
         id="path5125"
         d="M 310.34569,38.514876 V -3.4851232 h -44 v -2 h 44 V -25.485123 h -64 v 42.011827 l 20,-0.01183 v 0 h 24 v 2.09375 h -44 l -0.009,19.906249 z"
         inkscape:connector-curvature="0" />
      <path
         d="m 342.65819,38.514876 c 0,-43.8826712 0.18277,-0.110242 -0.0915,-43.9999992 h 0.88388 42.89515 V -25.485123 h -64 c 0,63.768424 -0.009,0.109806 -0.009,63.999996 z"
         id="path5127"
         style="fill:#ff9d4f;fill-opacity:1"
         inkscape:connector-curvature="0" />
      <path
         d="m 398.34569,38.514876 h 42 V -5.4851222 h 2 V 38.514876 h 20 v -63.999999 h -64 c 0.0387,19.9752668 1.21505,20.0000008 22,20.0000008 V 38.514876 l -2,-3.13e-4 V -5.5189962 l -20,-19.9661028 z"
         id="path5129"
         style="fill:#ff5347;fill-opacity:1"
         inkscape:connector-curvature="0" />
      <path
         style="fill:#008000"
         id="path5131"
         d="m 538.34569,-25.485123 v 42 h -44 v 2 h 44 v 20 h -64 v -64 c 19.97527,0.03867 20,1.21505 20,21.9999998 h 44 l -3.1e-4,-2 H 494.31182 L 474.34571,-25.485123 Z"
         inkscape:connector-curvature="0" />
      <path
         style="fill:#ff9d4f;fill-opacity:1"
         id="path5135"
         d="m 350.6948,38.514876 c 0,-44.0076712 -0.003,-0.02174 -0.003,-43.9999992 0,0 30.24668,0 35.65403,0 V -25.485123 h -64 c 0,63.768424 -0.009,0.109806 -0.009,63.999996 z"
         inkscape:connector-curvature="0" />
      <path
         d="m 353.33951,38.514876 c 0,0 -0.003,-0.02174 -0.003,-43.9999992 h 32.71653 V -25.485123 h -63.70721 c 0,63.768424 -0.009,0.109806 -0.009,63.999996 z"
         id="path5137"
         style="fill:#ff9d4f;fill-opacity:1"
         inkscape:connector-curvature="0" />
      <path
         style="fill:#ff9d4f;fill-opacity:1"
         id="path5162"
         d="m 366.02436,-25.485123 c 0,43.882671 -0.18277,0.110242 0.0915,43.999999 h -0.88388 -42.89515 v 20 h 64 c 0,-63.768424 0.009,-0.109806 0.009,-63.999996 z"
         inkscape:connector-curvature="0" />
      <path
         d="m 357.98775,-25.485123 c 0,44.007671 0.003,0.02174 0.003,43.999999 0,0 -30.24668,0 -35.65403,0 v 20 h 64 c 0,-63.768424 0.009,-0.109806 0.009,-63.999996 z"
         id="path5164"
         style="fill:#ff9d4f;fill-opacity:1"
         inkscape:connector-curvature="0" />
      <path
         style="fill:#ff9d4f;fill-opacity:1"
         id="path5166"
         d="m 355.34304,-25.485123 c 0,0 0.003,0.02174 0.003,43.999999 h -32.71653 v 20 h 63.70721 c 0,-63.768424 0.009,-0.109806 0.009,-63.999996 z"
         inkscape:connector-curvature="0" />
      <text
         xml:space="preserve"
         style="font-size:49.7931px;line-height:1.25;font-family:sans-serif;letter-spacing:0px;word-spacing:0px;fill:#3332bd;fill-opacity:1;stroke:none;stroke-width:1.24678;stroke-miterlimit:4;stroke-dasharray:none;stroke-opacity:1"
         x="207.35587"
         y="55.937206"
         id="text1033"><tspan
           sodipodi:role="line"
           id="tspan1031"
           x="207.35587"
           y="55.937206"
           style="font-style:normal;font-variant:normal;font-weight:normal;font-stretch:normal;font-size:42.6667px;font-family:'Vegan Style Personal Use';-inkscape-font-specification:'Vegan Style Personal Use, Normal';font-variant-ligatures:normal;font-variant-caps:normal;font-variant-numeric:normal;font-variant-east-asian:normal;fill:#3332bd;fill-opacity:1;stroke:none;stroke-width:1.24678;stroke-miterlimit:4;stroke-dasharray:none;stroke-opacity:1">Screenshots Gallery</tspan></text>
      <rect
         style="fill:#3332bd;fill-opacity:1;stroke:none;stroke-width:1.00157;stroke-linejoin:round;stroke-miterlimit:4;stroke-dasharray:none;stroke-opacity:1"
         id="rect59215"
         width="182.91946"
         height="51.706059"
         x="241.92432"
         y="164.95575" />
    </g>
  </g>
</svg>
